<?xml version="1.0" encoding="UTF-8" standalone="no"?> <svg xmlns="http://www.w3.org/2000/svg" viewBox="0 0 271.03 271.03"><defs><style>.cls-1{fill:#231f20;stroke:#fff;stroke-miterlimit:10;}.cls-2{fill:#fff;}</style></defs><title>Asset 36</title><g id="Layer_2" data-name="Layer 2"><g id="Capa_1" data-name="Capa 1"><rect class="cls-1" x="0.5" y="0.5" width="270.03" height="270.03" rx="46.5"/><path class="cls-2" d="M139.89,191.53c-28.14,0-51-21.7-51-48.38,0-23.7,17.86-43.76,42.47-47.7l.95,5.92c-21.69,3.47-37.42,21-37.42,41.78,0,23.37,20.2,42.38,45,42.38s45-19,45-42.38c0-21.11-16.73-39.16-38.92-42l.76-6c25.18,3.22,44.16,23.83,44.16,48C190.92,169.83,168,191.53,139.89,191.53Z"/><rect class="cls-2" x="136.23" y="85.92" width="6" height="31.97"/></g></g></svg>